<svg width="168" height="162" viewBox="0 0 168 162" fill="none" xmlns="http://www.w3.org/2000/svg">
<path d="M83.8588 72.042C90.5076 72.042 95.8387 77.4928 95.8387 84.0219C95.8387 99.8353 71.8789 99.8353 71.8789 84.0219C71.8789 77.4928 77.21 72.042 83.8588 72.042Z" fill="black"/>
<path d="M89.8496 60.9008V36.5217C105.004 38.4385 117.942 47.4234 125.31 60.0622L102.848 69.5263C99.6731 65.3333 95.1208 62.2785 89.8496 60.9008Z" fill="black"/>
<path d="M64.5132 98.0381L48.9993 116.847C37.7382 104.867 33.0062 87.8552 37.6783 71.1433L60.2005 80.6074C59.2421 87.1963 60.7995 93.0066 64.5132 98.098V98.0381Z" fill="black"/>
<path d="M64.8724 69.5261L42.4102 60.062C49.7778 47.4233 62.7161 38.3785 77.8706 36.4617V60.8407C72.5995 62.2184 68.107 65.2733 64.8724 69.4662V69.5261Z" fill="black"/>
<path d="M152.863 131.642C162.507 117.685 167.718 101.093 167.718 84.0217C167.718 37.7794 130.101 0.162598 83.8592 0.162598C37.6168 0.162598 0 37.7794 0 84.0217C0 101.033 5.21125 117.685 14.8551 131.642C8.98491 135.056 5.98994 139.189 5.98994 143.921C5.98994 157.339 25.6369 161.891 83.8592 161.891C142.081 161.891 161.728 157.339 161.728 143.921C161.728 139.189 158.733 135.056 152.863 131.642ZM83.8592 143.921C50.8546 143.921 23.9598 117.026 23.9598 84.0217C23.9598 51.0172 50.8546 24.1224 83.8592 24.1224C116.864 24.1224 143.759 51.0172 143.759 84.0217C143.759 117.026 116.864 143.921 83.8592 143.921Z" fill="black"/>
<path d="M95.359 104.927L110.274 123.975C102.667 129.006 93.6219 131.941 83.8583 131.941C74.0947 131.941 65.7088 129.186 58.2812 124.454L73.7952 105.646C80.8034 108.94 88.4106 108.76 95.359 104.867V104.927Z" fill="black"/>
<path d="M107.46 80.6074L129.922 71.1433C134.534 87.6755 129.982 104.268 119.32 116.128L104.105 96.6605C107.4 91.3893 108.239 86.1182 107.46 80.6074Z" fill="black"/>
</svg>
